<svg width="33" height="32" viewBox="0 0 33 32" fill="none" xmlns="http://www.w3.org/2000/svg">
<g clip-path="url(#clip0)">
<path d="M31.6474 5.19418L27.2838 0.826856C26.1844 -0.273531 24.2717 -0.275644 23.168 0.82897L3.61972 20.5701C3.53306 20.6576 3.47054 20.7649 3.43644 20.8829L0.527397 31.0734C0.454988 31.3271 0.525965 31.6008 0.712783 31.7878C0.851261 31.9264 1.03665 32.001 1.22701 32.001C1.29376 32.001 1.36126 31.9918 1.42658 31.9733L11.6084 29.0617C11.7263 29.0276 11.8335 28.965 11.9209 28.8783L31.6474 9.31127C32.1972 8.76111 32.4997 8.03034 32.4997 7.25273C32.4997 6.47511 32.1972 5.74434 31.6474 5.19418Z" fill="black"/>
<path d="M8.69448 22.7735L7.69139 20.7666C7.56777 20.5202 7.31639 20.3646 7.0408 20.3646H5.87611L19.9944 6.11932L22.6715 8.79642L8.69448 22.7735Z" fill="#FFCA28"/>
<path d="M11.7298 24.805L9.72293 23.8019L23.6999 9.82489L26.377 12.502L12.1318 26.6203V25.4556C12.1318 25.18 11.9762 24.9286 11.7298 24.805Z" fill="#FFCA28"/>
<path d="M24.1942 1.88173C24.7439 1.33198 25.7013 1.33198 26.251 1.88173L30.6147 6.24537C30.8895 6.52021 31.0408 6.88526 31.0408 7.27376C31.0408 7.66226 30.8895 8.02731 30.6168 8.30003L27.41 11.4782L21.0181 5.08635L24.1942 1.88173Z" fill="#D32F2F"/>
<path d="M8.17442 24.655C8.10413 24.6199 7.88431 24.4 7.84912 24.3297L6.5956 21.8226H4.68439L3.06569 27.489L5.0943 29.416L10.6816 27.8198V25.9086L8.17442 24.655Z" fill="#F2F2F2"/>
<path d="M5.09421 29.416L3.06566 27.489L3.23325 26.9021L2.28593 30.2183L5.60203 29.2709L5.09421 29.416Z" fill="black"/>
<path opacity="0.1" d="M10.6815 25.9087L8.17439 24.6552C8.1041 24.62 8.06673 24.5475 8.01178 24.4926L2.28593 30.2184L10.6815 27.82V25.9087Z" fill="black"/>
<path opacity="0.1" d="M28.4372 4.06702L24.2184 8.28577L27.4144 11.4817L30.6212 8.30357C30.8939 8.03084 31.0452 7.66579 31.0452 7.27729C31.0452 6.88879 30.8939 6.52375 30.6191 6.2489L28.4372 4.06702Z" fill="black"/>
<path opacity="0.1" d="M11.7341 24.8085L9.72723 23.8054L23.7042 9.82837L26.3813 12.5055L12.1361 26.6237V25.4591C12.1361 25.1835 11.9805 24.9321 11.7341 24.8085Z" fill="black"/>
<path d="M31.6474 5.19418L27.2838 0.826856C26.1844 -0.273531 24.2717 -0.275644 23.168 0.82897L3.61972 20.5701C3.53306 20.6576 3.47054 20.7649 3.43644 20.8829L0.527397 31.0734C0.454988 31.3271 0.525965 31.6008 0.712783 31.7878C0.851261 31.9264 1.03665 32.001 1.22701 32.001C1.29376 32.001 1.36126 31.9918 1.42658 31.9733L11.6084 29.0617C11.7263 29.0276 11.8335 28.965 11.9209 28.8783L31.6474 9.31127C32.1972 8.76111 32.4997 8.03034 32.4997 7.25273C32.4997 6.47511 32.1972 5.74434 31.6474 5.19418Z" fill="url(#paint0_linear)"/>
</g>
<defs>
<linearGradient id="paint0_linear" x1="7.09132" y1="13.0226" x2="26.0045" y2="21.8383" gradientUnits="userSpaceOnUse">
<stop stop-color="white" stop-opacity="0.2"/>
<stop offset="1" stop-color="white" stop-opacity="0"/>
</linearGradient>
<clipPath id="clip0">
<rect width="33" height="32" fill="white"/>
</clipPath>
</defs>
</svg>
