<svg width="12" height="20" viewBox="0 0 12 20" fill="none" xmlns="http://www.w3.org/2000/svg">
<g clip-path="url(#clip0)">
<path d="M8.96021 9.54581C8.90549 10.8224 8.45216 11.7186 7.92875 12.0984C7.37376 12.501 6.8128 12.2789 6.53273 11.5456C6.07418 10.3449 6.38927 9.50922 6.69396 8.70102C7.03945 7.78461 7.43106 6.74588 7.05546 4.72594C6.75894 3.13125 6.17823 1.79244 5.32942 0.746676C5.06482 0.420711 4.81387 0.175558 4.61022 0C4.89466 1.11176 5.26456 3.1806 4.87817 5.46629C4.63311 6.91612 3.98545 8.01479 3.3591 9.07729C2.53415 10.4768 1.68106 11.9239 1.68106 14.236C1.68106 16.0297 2.07026 17.4586 2.8378 18.483C3.41903 19.2588 4.01213 19.5608 4.01804 19.5632H5.43329L5.40367 19.5623C5.39821 19.5555 4.85903 18.8721 4.84975 18.0884C4.84542 17.7221 4.96514 17.3707 5.20558 17.044C5.56674 16.5533 5.76523 16.0249 5.81245 15.4288C5.84133 15.0642 5.81214 14.6787 5.7234 14.2627C6.32241 14.666 6.94203 15.5468 7.15201 16.6402C7.34058 17.622 7.16614 18.6318 6.64803 19.5632H8.19688C9.21143 18.287 9.78259 16.7575 9.89454 15.0174C10.0373 12.7986 9.40558 10.709 8.96021 9.54581Z" fill="black"/>
<path d="M5.4333 19.5632L6.62764 19.5996C6.63457 19.5875 6.64121 19.5753 6.64803 19.5632H5.4333Z" fill="black"/>
</g>
<defs>
<clipPath id="clip0">
<rect width="11.5961" height="19.6" fill="white"/>
</clipPath>
</defs>
</svg>
