<svg width="109" height="140" viewBox="0 0 109 140" fill="none" xmlns="http://www.w3.org/2000/svg">
<path d="M108.913 128.053L100.69 73.7513C100.449 72.0809 99.3053 70.8635 97.9862 70.8635H93.5233L93.1276 67.7493C92.9298 66.2204 92.0064 65.0314 90.8192 64.8049C90.5994 64.7483 90.4015 64.7199 90.1817 64.6916C90.0498 64.6633 89.8959 64.635 89.764 64.635L88.7087 64.4368L88.9286 63.1062C89.5002 59.7088 89.0385 56.2265 87.6315 53.2538L87.3676 52.7159L87.5435 52.1214C88.247 49.7715 88.1151 47.1385 87.1918 44.9303C86.2684 42.722 84.6196 41.1365 82.7069 40.5986L82.0693 40.4287L81.9594 39.5794C80.6403 30.5197 74.4846 23.8949 67.3396 23.8382C67.2736 23.8382 67.1857 23.8382 67.1198 23.8666C67.0318 23.8666 66.9439 23.8949 66.8559 23.8949L66.2843 23.9232L65.9766 23.3003C64.8993 21.1487 63.1625 19.7331 61.1839 19.3934C59.2053 19.0819 57.2486 19.903 55.7976 21.6583L55.226 22.3377L54.5665 21.7998C52.6319 20.1861 50.3894 19.3367 48.103 19.3367C44.3876 19.365 40.936 21.545 38.6496 25.3388L38.2319 26.0182L37.5943 25.7634C35.1321 24.8575 32.5379 25.3954 30.4493 27.2922C28.3608 29.1891 27.0637 32.1618 26.9098 35.4459L26.8658 36.2387L26.2942 36.5501C23.788 37.909 22.1831 41.0516 22.1611 44.5339C22.1611 45.1284 22.2271 45.723 22.315 46.3175L22.4029 46.8554L22.1611 47.3084C19.7868 51.9232 19.1712 57.6138 20.4683 62.8797L20.82 64.3236L19.6549 64.5218C19.457 64.5501 19.2371 64.5784 19.0393 64.635C18.7535 64.6916 18.4457 64.7483 18.1599 64.7766C16.9727 65.0031 16.0274 66.1921 15.8295 67.721L15.4338 70.8352H11.0149C9.69579 70.8352 8.55259 72.0526 8.31076 73.723L0.0884914 128.053C-0.175325 129.808 0.17643 131.62 1.05582 133.007C1.9352 134.394 3.25428 135.187 4.63932 135.187H44.3217L44.6074 135.81C45.7946 138.33 49.7738 140.028 54.4786 140.028C59.1613 140.028 63.0966 138.33 64.3057 135.81L64.5915 135.215H104.318C105.703 135.215 107 134.423 107.901 133.035C108.825 131.62 109.176 129.808 108.913 128.053ZM22.6228 51.1021L23.1944 49.3468L24.2277 50.7058C24.5794 51.1871 24.9971 51.5834 25.4368 51.9515C25.8545 52.2629 26.3822 52.0931 26.646 51.5551C26.8878 51.0455 26.7779 50.4227 26.4261 50.0546L26.3602 49.998C24.4695 48.5258 23.5461 45.5814 24.1397 42.8352C24.7333 40.089 26.6899 38.1638 28.8884 38.1638H28.9104C30.4493 38.1638 31.9223 39.1264 32.8456 40.7402C33.0215 41.0516 33.3513 41.2215 33.6591 41.1931C33.9669 41.1365 34.2527 40.8817 34.3626 40.5137C34.4945 40.1456 34.4505 39.721 34.2527 39.3812C33.1534 37.4844 31.4606 36.267 29.6359 36.0122L28.5367 35.8706L28.7565 34.4833C29.416 30.5481 32.1641 27.6603 35.2859 27.6603H35.3079H35.3299C35.5937 27.6886 35.8576 27.7169 36.1214 27.7735L37.3305 28.0283L36.8908 29.5005C36.7589 29.9535 36.627 30.4065 36.5391 30.8595C36.4292 31.454 36.715 32.0486 37.1766 32.2184C37.6383 32.36 38.122 32.0202 38.2539 31.4257C38.4957 30.2649 38.8475 29.1608 39.3311 28.085C41.1559 24.1214 44.5195 21.6583 48.081 21.63C50.0597 21.63 51.9503 22.3944 53.5992 23.7816L54.2587 24.3195L53.9949 25.2538C53.7531 26.1315 53.6212 27.0657 53.6212 28C53.6212 28.6229 54.0169 29.1325 54.5006 29.1325C54.9842 29.1325 55.3799 28.6229 55.3799 28C55.3799 24.4894 57.6004 21.63 60.3045 21.63C63.0306 21.63 65.2511 24.4894 65.2511 28C65.2511 28.6229 65.6468 29.1325 66.1304 29.1325C66.6141 29.1325 67.0098 28.6229 67.0098 28C67.0098 27.9717 67.0098 27.9151 66.9878 27.8868C66.9659 27.7735 66.9659 27.6603 66.9659 27.5187L66.8999 26.1032L67.9991 26.1881C73.7591 26.6411 78.7057 32.0202 80.0028 39.268L80.2226 40.4571L79.3212 40.7968C78.5518 41.0799 77.8483 41.5329 77.2107 42.1557C76.9689 42.4105 76.815 42.8069 76.859 43.2033C76.9029 43.5996 77.1008 43.9677 77.3866 44.1092C77.6724 44.2791 78.0242 44.2225 78.266 43.9677C80.1347 42.1841 82.7509 42.3256 84.4876 44.3074C86.2244 46.2892 86.6641 49.6016 85.5209 52.2063C85.0153 53.3671 84.2458 54.273 83.3005 54.8393C82.9487 55.0657 82.7509 55.6037 82.8388 56.1133C82.9267 56.6229 83.2785 56.9909 83.6962 57.0192C83.8061 57.0192 83.938 56.9909 84.0699 56.906C84.4876 56.6512 84.9053 56.3115 85.2791 55.9151L86.3563 54.8109L86.818 56.4813C87.9173 60.4732 87.2357 64.9181 85.0373 68.0607L84.9713 68.1456C82.2672 71.9394 77.8483 72.9586 74.2428 70.6653L74.2208 70.637C73.869 70.3822 73.5173 70.1274 73.1875 69.816L72.3961 69.0799L72.9677 68.0607C74.1329 65.9373 74.3087 63.1911 73.3854 60.8696C73.2535 60.5015 72.9677 60.2751 72.6379 60.2467C72.3301 60.2184 72.0223 60.4166 71.8465 60.7563C71.6706 61.0961 71.6486 61.5491 71.8025 61.8888C72.6379 64.0405 72.1103 66.7017 70.5714 68.0607C69.648 68.8534 68.5488 69.0799 67.4935 68.7402C66.4382 68.4004 65.5588 67.4945 65.0532 66.2488C64.8993 65.8524 64.6135 65.6259 64.3057 65.5976C63.9979 65.5693 63.6901 65.7675 63.5143 66.1072C63.3384 66.4469 63.3164 66.8716 63.4703 67.2397C64.4156 69.6744 66.3063 71.2033 68.4169 71.2033H68.4388C69.1204 71.2033 69.7799 71.0334 70.4174 70.6937L70.9891 70.4105L71.4507 70.9201C72.0663 71.5996 72.7258 72.1942 73.4513 72.6755C75.9136 74.3175 78.7277 74.6573 81.3658 73.6097L84.2018 72.5056L82.4431 75.5915C80.4205 79.1305 77.4526 81.4803 74.0889 82.1881C73.6492 82.273 73.3194 82.8109 73.3414 83.4055C73.3854 84 73.7591 84.453 74.2208 84.453C74.2648 84.453 74.3087 84.453 74.3747 84.453C75.43 84.2265 76.4632 83.8302 77.4745 83.2922L78.288 82.8393L78.7277 83.8302C79.3432 85.2174 79.8269 86.6896 80.2006 88.2184C80.2886 88.5865 80.3325 88.9828 80.3545 89.3792C80.3545 90.9363 79.629 92.3519 78.5298 92.9464L78.5078 92.9747C78.1341 93.1446 77.7603 93.2579 77.3866 93.2579C76.4632 93.2579 75.5839 92.7199 74.9683 91.7857C73.6272 89.7756 71.8904 88.2751 69.9338 87.4823C65.9985 85.7836 63.954 84.085 63.0746 81.82L62.437 80.2063L63.8221 79.9798C64.7454 79.8382 65.6468 79.5834 66.5482 79.2437C66.834 79.1305 67.0758 78.819 67.1417 78.4227C67.2077 78.0263 67.1198 77.6016 66.8779 77.3185C66.6361 77.0354 66.3063 76.9505 66.0205 77.0637C64.8993 77.5167 63.7341 77.7715 62.5469 77.8848C60.3045 78.1112 57.9961 77.6583 55.9076 76.5824C55.5558 76.4126 55.1601 76.5258 54.9183 76.8939C51.8184 81.4803 46.63 82.2447 42.8047 78.6775C39.0014 75.1102 37.9461 68.5137 40.3644 63.3044C40.5403 62.9646 40.5403 62.5117 40.3864 62.1436C40.2325 61.7756 39.9467 61.5491 39.6169 61.5491C39.3091 61.5491 39.0014 61.7472 38.8475 62.1153C38.4517 62.9929 38.122 63.9555 37.8582 64.9464L37.6383 65.8807L36.8688 65.8241C34.8902 65.6825 33.3073 63.5875 33.2634 61.0111V60.9262C33.2634 60.6431 33.1754 60.3317 32.9995 60.1335C32.8457 59.9353 32.6038 59.8221 32.384 59.8221C31.8783 59.8221 31.4826 60.36 31.4826 60.9828C31.4826 64.635 33.6151 67.6643 36.4292 68.0607L37.3085 68.1739V69.3064C37.3085 70.0425 37.3745 70.7786 37.4624 71.5147L37.6163 72.7038L36.693 72.9586C32.1202 74.2326 27.4374 72.1375 24.4475 67.4945C21.4796 62.9646 20.7761 56.6229 22.6228 51.1021ZM44.2997 132.866H4.63932C3.78192 132.866 2.96848 132.384 2.41887 131.507C1.86925 130.657 1.6494 129.553 1.82528 128.477L10.2014 73.1284H15.17L9.10221 120.182C8.94831 121.399 9.30007 122.617 10.0256 123.438C10.7511 124.259 11.7404 124.514 12.6637 124.146C22.7767 119.927 33.6591 119.05 44.1238 121.569L45.0032 121.796L44.2997 132.866ZM62.8327 134.621C62.0853 136.121 58.7656 137.707 54.5006 137.707C50.2355 137.707 46.9158 136.15 46.1684 134.621L45.9925 134.253L46.7619 122.305L47.8832 122.673C49.9937 123.353 52.0603 124.259 54.0609 125.335L54.1048 125.363C54.2148 125.448 54.3686 125.476 54.5006 125.476C54.6325 125.476 54.7644 125.448 54.8743 125.363L54.9183 125.335C56.9189 124.231 59.0074 123.325 61.096 122.645L62.2172 122.277L62.9866 134.253L62.8327 134.621ZM56.677 121.966L55.3799 122.532V90.5966C55.3799 90.0021 55.0502 89.4641 54.5885 89.4075C54.0609 89.3509 53.5992 89.8605 53.5992 90.54V122.56L52.3021 121.994C39.3531 116.417 25.0851 116.417 12.1361 121.966C12.0262 122.022 11.9162 122.022 11.8283 122.022C11.2347 122.022 10.7511 121.343 10.861 120.55L17.7422 67.1547L18.4457 67.0132C19.1492 66.8716 19.8967 66.7584 20.6002 66.6451L21.7434 66.4469L22.0732 67.1547C25.3269 73.8362 31.5046 77.0637 37.4404 75.1952L38.1879 74.9687L38.5397 75.8463C40.1006 79.6401 42.9806 82.3296 46.2563 83.0657C49.532 83.7735 52.9616 82.4712 55.4019 79.5268L55.8196 79.0172L56.3692 79.2154C57.5784 79.6684 58.8096 79.9515 60.0627 80.0647L60.7662 80.1214L60.9421 80.999C61.7555 84.9343 64.0859 87.3408 69.3182 89.6057C70.9671 90.2568 72.44 91.5309 73.5613 93.2295C74.5066 94.6734 75.8916 95.5228 77.3426 95.5228C77.9802 95.5228 78.5958 95.3529 79.1674 95.0415C80.9261 94.0789 82.0693 91.8423 82.0693 89.3792C82.0693 88.728 81.9814 88.1052 81.8275 87.4823C81.4318 85.8403 80.8822 84.2831 80.2446 82.7826L79.8049 81.7917L80.5304 81.1123C83.5203 78.3377 85.6089 74.2609 86.3783 69.6178L86.4223 69.3064L86.5762 69.0516C86.9499 68.4854 87.2797 67.8908 87.5655 67.268L87.8953 66.5602L88.9505 66.7301C89.4342 66.815 89.9618 66.8999 90.4675 67.0132L91.171 67.1547L98.0522 120.522C98.1621 121.456 97.4586 122.249 96.7551 121.937C90.2696 119.163 83.4763 117.747 76.6831 117.747C69.9558 117.804 63.1625 119.191 56.677 121.966ZM106.56 131.535C106.011 132.384 105.197 132.894 104.34 132.894H64.7014L63.9979 121.796L64.8773 121.569C75.342 119.021 86.2464 119.927 96.3594 124.174C97.2607 124.542 98.25 124.259 98.9975 123.438C99.723 122.617 100.075 121.399 99.9209 120.182L93.8531 73.1567H98.8436L107.22 128.506C107.33 129.581 107.11 130.686 106.56 131.535Z" fill="black"/>
<path d="M63.0081 134.253L62.8322 134.621C62.0847 136.121 58.765 137.707 54.5 137.707C50.235 137.707 46.9153 136.15 46.1678 134.621L45.9919 134.253L46.7614 122.305L47.8826 122.673C49.9932 123.353 52.0597 124.259 54.0603 125.335L54.1043 125.363C54.2142 125.448 54.3681 125.476 54.5 125.476C54.6319 125.476 54.7638 125.448 54.8737 125.363L54.9177 125.335C56.9183 124.231 59.0069 123.325 61.0954 122.645L62.2166 122.277L63.0081 134.253Z" fill="black"/>
<path d="M66.6135 49.6866C65.8001 55.1223 62.3925 59.3691 58.1714 60.275L57.5998 60.3883L57.4019 61.0677C56.1928 65.2295 53.071 68.004 49.6194 68.004H49.5974C49.1137 68.004 48.718 67.4944 48.718 66.8716C48.718 66.2487 49.1137 65.7391 49.5974 65.7391C51.7299 65.7391 53.7305 64.4085 54.9616 62.1719L55.841 60.5864L54.3681 60.1901C52.2355 59.5955 50.3449 58.2083 48.8719 56.1132C48.718 55.8868 48.652 55.6319 48.652 55.3488C48.652 55.0374 48.762 54.726 48.9378 54.4995C49.3116 54.0748 49.8612 54.1031 50.191 54.5844C53.1149 58.6046 57.7977 59.2841 61.3592 56.2265C63.2059 54.5844 64.459 52.1213 64.8767 49.2619C64.9207 48.8655 65.1405 48.5258 65.4483 48.3842C65.7561 48.2427 66.0859 48.3276 66.3277 48.6107C66.5915 48.8372 66.7014 49.2619 66.6135 49.6866Z" fill="black"/>
<path d="M49.3776 39.8059C49.3776 40.4287 48.9819 40.9383 48.4982 40.9383C46.9373 40.9383 45.4644 41.731 44.3431 43.1466C43.2219 44.5622 42.6283 46.4874 42.6283 48.4975C42.6283 49.1203 42.2326 49.6299 41.749 49.6299C41.5071 49.6299 41.2873 49.5167 41.1334 49.2902C40.9575 49.0637 40.8696 48.7806 40.8696 48.4975C40.8696 43.0617 44.2992 38.6734 48.5202 38.6451C48.9819 38.6451 49.3776 39.1547 49.3776 39.8059Z" fill="black"/>
<path d="M55.3794 1.13246V3.53893C55.3794 4.16178 54.9837 4.67139 54.5 4.67139C54.0164 4.67139 53.6207 4.16178 53.6207 3.53893V1.13246C53.6207 0.509606 54.0164 0 54.5 0C54.9837 0 55.3794 0.509606 55.3794 1.13246Z" fill="black"/>
<path d="M87.2353 18.5723L85.3446 21.0071C85.1247 21.2902 84.795 21.4317 84.4872 21.3185C84.1794 21.2053 83.9376 20.8938 83.8496 20.4975C83.7617 20.1011 83.8496 19.6764 84.0914 19.365L85.9601 16.9585H85.9821C86.158 16.732 86.3779 16.6188 86.6197 16.6188C86.6856 16.6188 86.7736 16.6188 86.8395 16.6471C87.1473 16.7604 87.3892 17.0718 87.4771 17.4681C87.565 17.8362 87.4771 18.2609 87.2353 18.5723Z" fill="black"/>
<path d="M25.0844 20.6107C24.9525 21.0354 24.6227 21.3185 24.271 21.3185C24.0291 21.3185 23.8093 21.2053 23.6554 20.9788L21.7647 18.544C21.5229 18.2609 21.435 17.8362 21.5229 17.4399C21.6108 17.0435 21.8527 16.7321 22.1604 16.6188C22.2264 16.5905 22.3143 16.5905 22.3803 16.5905C22.6221 16.5905 22.842 16.7038 23.0398 16.9586L24.9085 19.365C25.1504 19.7048 25.2163 20.1861 25.0844 20.6107Z" fill="black"/>
<path d="M39.5283 10.4469C39.4404 10.73 39.2645 10.9565 39.0446 11.0697C38.9347 11.1264 38.8248 11.1547 38.6929 11.1547C38.3411 11.1547 38.0113 10.8716 37.8794 10.4469L35.7249 3.70878C35.593 3.34073 35.637 2.88775 35.8349 2.54801C36.0107 2.26489 36.2746 2.09503 36.5384 2.09503C36.5823 2.09503 36.6263 2.09503 36.6703 2.09503C36.9781 2.15165 37.2639 2.43476 37.3738 2.83112L39.5283 9.54093C39.6162 9.85236 39.6162 10.1638 39.5283 10.4469Z" fill="black"/>
<path d="M73.2749 3.76543L71.1204 10.4752C71.0545 10.7017 70.9446 10.8716 70.7907 10.9848C70.6588 11.0981 70.4829 11.183 70.307 11.183C70.1971 11.183 70.0652 11.1547 69.9772 11.0981C69.7574 10.9848 69.5815 10.7584 69.4936 10.4752C69.4056 10.1921 69.4056 9.8807 69.4936 9.59759L71.6481 2.91609C71.78 2.4631 72.1317 2.2083 72.4615 2.2083C72.5714 2.2083 72.6813 2.23661 72.7913 2.29324C73.0111 2.40648 73.187 2.63297 73.2749 2.91609C73.3629 3.17089 73.3629 3.48232 73.2749 3.76543Z" fill="black"/>
<path d="M98.7112 36.1537C98.6672 36.55 98.4693 36.9181 98.1616 37.0596L92.9512 39.8342C92.8413 39.8908 92.7313 39.9191 92.6214 39.9191C92.2037 39.9191 91.83 39.5227 91.742 39.0131C91.6541 38.4752 91.8739 37.9373 92.2697 37.7391L97.48 34.9646C97.59 34.908 97.6999 34.8797 97.8098 34.8797C98.0077 34.8797 98.1835 34.9646 98.3594 35.1062C98.6232 35.361 98.7551 35.7573 98.7112 36.1537Z" fill="black"/>
<path d="M17.1919 39.2113C17.016 39.8059 16.4884 40.0607 16.0267 39.8342L10.8163 37.0597C10.5965 36.9464 10.4206 36.7199 10.3327 36.4368C10.2447 36.1537 10.2447 35.8423 10.3327 35.5592C10.4206 35.2761 10.5965 35.0496 10.8163 34.9363C10.9263 34.8797 11.0362 34.8514 11.1461 34.8514C11.256 34.8514 11.3879 34.8797 11.4759 34.9363L16.6863 37.7108C16.9061 37.8241 17.082 38.0506 17.1699 38.3337C17.2798 38.6168 17.2798 38.9282 17.1919 39.2113Z" fill="black"/>
</svg>
