<svg width="124" height="125" viewBox="0 0 124 125" fill="none" xmlns="http://www.w3.org/2000/svg">
<g clip-path="url(#clip0)">
<path d="M66.3844 13.1279C70.7126 23.817 84.8776 22.2084 94.4896 19.9253C96.7942 19.3545 99.155 18.7319 101.235 17.6422C103.315 16.5525 105.057 14.7883 105.732 12.6609C106.462 10.274 105.619 7.62766 104.158 5.55211C102.809 3.63222 100.841 1.60856 98.7616 0.363233C97.8622 2.49067 94.6582 2.64634 92.466 2.64634C89.3744 2.64634 86.5639 1.55667 83.6972 0.778343C80.7742 1.15037e-05 77.6265 -0.155655 74.7035 0.570788C68.8014 1.86801 64.0798 7.4201 66.3844 13.1279Z" fill="black"/>
<path d="M75.2094 84.6824C75.0408 84.6824 74.9846 84.6824 74.8722 84.7343L75.2094 84.6824Z" fill="black"/>
<path d="M75.2094 84.6824C75.0408 84.6824 74.9846 84.6824 74.8722 84.7343L75.2094 84.6824Z" fill="black"/>
<path d="M62.7307 32.638V22.6235C62.7307 14.1137 71.3309 7.16064 81.8422 7.16064C87.0698 7.16064 91.8477 8.87297 95.3327 11.675C98.8178 14.477 100.954 18.3167 100.954 22.5716V32.5861" stroke="black" stroke-width="2" stroke-miterlimit="10"/>
<path d="M100.954 43.4828V55.054C100.954 63.5637 92.3536 70.5168 81.8422 70.5168C71.3309 70.5168 62.7307 63.5637 62.7307 55.054V43.4828" stroke="black" stroke-width="2" stroke-miterlimit="10"/>
<path d="M70.4878 47.0631C75.8584 47.0631 80.2122 43.0441 80.2122 38.0863C80.2122 33.1286 75.8584 29.1096 70.4878 29.1096C65.1171 29.1096 60.7634 33.1286 60.7634 38.0863C60.7634 43.0441 65.1171 47.0631 70.4878 47.0631Z" stroke="black" stroke-width="2" stroke-miterlimit="10"/>
<path d="M93.1405 47.0631C98.5112 47.0631 102.865 43.0441 102.865 38.0863C102.865 33.1286 98.5112 29.1096 93.1405 29.1096C87.7699 29.1096 83.4161 33.1286 83.4161 38.0863C83.4161 43.0441 87.7699 47.0631 93.1405 47.0631Z" stroke="black" stroke-width="2" stroke-miterlimit="10"/>
<path d="M80.1559 37.8269H83.5286" stroke="black" stroke-width="4" stroke-miterlimit="10"/>
<path d="M89.6555 69.1158H89.7113V85.357" stroke="black" stroke-width="2" stroke-miterlimit="10"/>
<path d="M75.6591 85.1495V69.5309" stroke="black" stroke-width="2" stroke-miterlimit="10"/>
<path d="M70.4878 40.1619C71.7295 40.1619 72.7362 39.2326 72.7362 38.0864C72.7362 36.9401 71.7295 36.0108 70.4878 36.0108C69.246 36.0108 68.2393 36.9401 68.2393 38.0864C68.2393 39.2326 69.246 40.1619 70.4878 40.1619Z" fill="black"/>
<path d="M93.1405 40.1619C94.3823 40.1619 95.3889 39.2326 95.3889 38.0864C95.3889 36.9401 94.3823 36.0108 93.1405 36.0108C91.8987 36.0108 90.8921 36.9401 90.8921 38.0864C90.8921 39.2326 91.8987 40.1619 93.1405 40.1619Z" fill="black"/>
<path d="M61.4379 41.4591H60.3137C59.0771 41.4591 57.9529 41.9261 57.1097 42.6525C56.3228 43.4309 55.8169 44.4687 55.8169 45.6102C55.8169 47.8933 57.8404 49.7613 60.3137 49.7613H62.5621" stroke="black" stroke-width="2" stroke-miterlimit="10"/>
<path d="M102.19 41.4591H103.315C105.788 41.4591 107.811 43.3271 107.811 45.6102C107.811 46.7518 107.306 47.7895 106.462 48.5679C105.675 49.2943 104.551 49.7613 103.315 49.7613H101.066" stroke="black" stroke-width="2" stroke-miterlimit="10"/>
<path d="M62.6183 44.3649V46.8555H60.8196C60.0889 46.8555 59.4706 46.2848 59.4706 45.6102C59.4706 45.247 59.6392 44.9356 59.864 44.7281C60.0889 44.5205 60.4261 44.3649 60.8196 44.3649H62.6183Z" fill="black"/>
<path d="M101.066 46.8555V44.3649H102.865C103.596 44.3649 104.214 44.9356 104.214 45.6102C104.214 45.9734 104.045 46.2848 103.82 46.4923C103.596 46.6999 103.258 46.8555 102.865 46.8555H101.066Z" fill="black"/>
<path d="M81.8422 46.648C81.8422 46.648 79.0317 50.7991 83.5285 49.7613" stroke="black" stroke-width="2" stroke-miterlimit="10" stroke-linecap="round"/>
<path d="M76.7833 58.6343C76.7833 58.6343 81.2802 63.7713 87.4633 58.6343" stroke="black" stroke-width="2" stroke-miterlimit="10" stroke-linecap="round"/>
<path d="M66.1033 27.4491C66.1033 27.4491 69.1949 24.5953 74.5349 26.9303" stroke="black" stroke-width="3" stroke-miterlimit="10" stroke-linecap="round"/>
<path d="M97.5811 27.4491C97.5811 27.4491 94.4896 24.5953 89.1496 26.9303" stroke="black" stroke-width="3" stroke-miterlimit="10" stroke-linecap="round"/>
<path d="M62.6183 21.5338C62.6183 21.5338 54.8613 15.9817 58.2339 9.23619C61.6065 2.49065 72.2865 6.12286 72.2865 6.12286C72.2865 6.12286 76.5585 22.9348 62.6183 21.5338Z" fill="black"/>
<path d="M24.0574 62.9938C23.3828 60.9701 22.4273 59.9842 21.9214 57.0266C20.8534 51.1112 21.2469 45.4554 18.605 45.6629C17.537 45.7667 17.1997 46.8045 17.2559 47.3753L18.0991 56.7152C17.7618 57.8049 17.1435 57.3898 17.1435 57.3898C17.1435 57.3898 14.9513 49.0876 14.6702 47.5828C14.3892 46.1299 13.6022 45.2997 12.5343 45.4035C10.6793 45.5591 11.41 47.6347 11.5787 48.413L13.546 58.4794C13.7147 59.4653 12.5905 59.154 12.5905 59.154L8.20606 49.0876C7.70016 47.9979 6.74459 48.2574 6.74459 48.2574C5.00207 48.6206 5.67659 50.0735 5.67659 50.0735L9.44268 60.7626C9.44268 60.8144 9.44268 60.8663 9.44268 60.9182C9.49889 61.489 8.71195 61.8003 8.37469 61.2814C7.19427 59.621 4.88965 56.9747 2.97849 55.9369C2.02292 55.418 1.34839 55.5218 0.954922 55.7812C0.56145 56.0407 0.505239 56.5077 0.786291 56.8709L7.81258 66.2628C9.44268 76.2254 16.0193 77.4188 16.0193 77.4188L19.954 91.6364L25.7437 114.052L26.4744 116.906C27.1489 119.656 29.847 121.628 32.8824 121.628H35.974C38.1662 121.628 39.6838 119.656 39.0093 117.788L25.0129 78.4566L24.3946 75.032C25.7437 73.631 26.643 70.6733 27.0927 68.5459C27.3738 67.4043 27.4862 66.2109 27.3738 65.0693C27.1489 62.2154 29.2287 57.0785 29.2287 57.0785C29.0601 56.0926 27.0365 56.9228 27.0365 56.9228C24.7881 57.6492 24.226 60.9701 24.0574 62.7862C24.0012 63.5645 23.6077 64.2391 23.0456 64.758C19.673 67.8194 19.3919 71.2441 19.3919 71.2441" stroke="black" stroke-width="2" stroke-miterlimit="10"/>
<path d="M14.6147 47.6339C14.3336 46.181 13.8277 45.0913 12.4787 45.4546C10.68 45.9216 11.3545 47.6858 11.5231 48.4641" stroke="black" stroke-width="2" stroke-miterlimit="10"/>
<path d="M124 124.481V125H111.746L109.16 111.768V125H56.0979V117.476C56.0979 115.66 56.0979 113.844 56.1541 112.028C54.9737 112.91 53.6809 113.636 52.1632 114.415L40.4152 121.679C40.359 121.731 40.3028 121.731 40.2466 121.783C39.7407 122.042 39.1786 122.198 38.5603 122.198L36.1172 122.284C36.1172 122.284 38.7289 121.368 39.3472 119.085L35.1315 106.112C41.146 101.494 50.8703 88.159 69.5322 85.4089C70.3191 85.2532 71.1623 85.0975 72.0616 84.9938C72.9048 84.89 73.7479 84.7862 74.7035 84.7343L75.3218 84.6824V84.7862L74.9846 84.8381C75.097 84.8381 75.1532 84.8381 75.2656 84.7862H75.3218C75.4343 84.7862 75.5467 84.7862 75.6591 84.7343H75.7153L76.2774 84.6824V86.6542C76.2774 86.9137 76.3898 87.225 76.6709 87.4844C77.514 88.3665 79.4252 89.0411 81.7298 89.1968C82.1233 89.2486 82.5168 89.2486 82.9102 89.2486C82.9664 89.2486 83.0227 89.2486 83.0227 89.2486H83.0789C85.3273 89.1968 87.4071 88.626 88.475 87.7958C88.8123 87.5363 89.1496 87.1731 89.1496 86.6542V84.8381L89.7117 84.9419H89.8241C89.9927 84.9419 90.1052 84.9938 90.2738 84.9938V84.8381L91.0045 84.9419C111.634 87.2769 124 102.065 124 124.481Z" fill="#1A7DBD"/>
<path d="M40.3585 121.627L40.1904 121.731C40.2464 121.731 40.3025 121.679 40.3585 121.627Z" fill="black"/>
</g>
<defs>
<clipPath id="clip0">
<rect width="124" height="125" fill="white"/>
</clipPath>
</defs>
</svg>
